<?xml version="1.0" standalone="no"?>
<!DOCTYPE svg PUBLIC "-//W3C//DTD SVG 20010904//EN"
 "http://www.w3.org/TR/2001/REC-SVG-20010904/DTD/svg10.dtd">
<svg version="1.0" xmlns="http://www.w3.org/2000/svg"
 width="1340.000000pt" height="1340.000000pt" viewBox="0 0 1340.000000 1340.000000"
 preserveAspectRatio="xMidYMid meet">
<metadata>
Created by potrace 1.14, written by Peter Selinger 2001-2017
</metadata>
<g transform="translate(0.000000,1340.000000) scale(0.100000,-0.100000)"
fill="#000000" stroke="none">
<path d="M3058 10435 c-2 -2 -47 -6 -101 -10 -54 -3 -107 -8 -116 -10 -10 -2
-42 -6 -72 -10 -30 -3 -61 -8 -69 -10 -14 -4 -57 -12 -105 -21 -41 -7 -152
-32 -195 -45 -25 -7 -47 -13 -50 -13 -3 -1 -9 -4 -15 -7 -5 -4 -26 -10 -45
-14 -31 -7 -212 -71 -265 -94 -48 -21 -294 -143 -340 -168 -122 -68 -264 -167
-452 -316 -76 -60 -375 -371 -422 -440 -8 -12 -26 -33 -38 -47 -13 -14 -23
-28 -23 -31 0 -3 -9 -17 -20 -30 -81 -98 -221 -331 -330 -549 -27 -53 -44 -94
-42 -102 1 -3 -5 -12 -13 -18 -8 -7 -15 -19 -15 -27 0 -8 -8 -33 -19 -56 -10
-23 -31 -76 -45 -117 -15 -41 -30 -82 -33 -90 -4 -8 -7 -17 -8 -20 -7 -27 -59
-191 -66 -210 -13 -37 -47 -181 -54 -230 -2 -14 -4 -25 -5 -25 -2 0 -10 -36
-15 -70 -3 -16 -8 -43 -12 -60 -4 -16 -7 -34 -8 -40 -1 -16 -17 -118 -21 -140
-2 -11 -7 -45 -10 -75 -2 -30 -7 -71 -9 -90 -21 -160 -28 -775 -12 -975 10
-126 24 -270 27 -270 1 0 3 -16 5 -36 4 -50 23 -163 43 -259 6 -30 13 -66 16
-80 16 -93 107 -402 153 -520 14 -36 26 -69 28 -75 1 -5 7 -21 12 -35 6 -14
23 -54 38 -90 36 -88 193 -399 206 -410 4 -3 26 -36 49 -75 172 -282 480 -628
729 -817 31 -24 65 -51 75 -60 11 -10 26 -18 33 -18 7 0 13 -4 13 -8 0 -9 186
-132 200 -132 4 0 10 -3 12 -7 14 -34 564 -282 598 -271 3 1 15 -4 28 -11 22
-11 227 -68 282 -77 14 -2 36 -7 50 -10 14 -4 36 -8 50 -10 14 -1 36 -5 49 -8
14 -3 47 -8 75 -11 28 -3 65 -8 81 -11 93 -17 607 -24 750 -11 85 8 200 23
255 33 14 2 39 7 55 9 38 6 46 8 190 41 11 3 31 7 44 10 14 3 28 7 33 10 4 3
16 7 26 9 33 6 256 82 322 109 119 50 314 149 419 213 57 35 107 63 111 63 5
0 10 3 12 8 2 4 35 30 73 57 467 328 884 856 1110 1405 14 36 32 79 39 95 24
54 94 253 102 290 1 6 16 57 32 115 29 103 45 167 42 172 -1 2 3 16 9 31 6 16
14 52 17 80 4 29 9 56 12 61 3 5 6 19 7 30 2 12 5 37 8 56 47 298 57 444 59
810 1 240 -4 414 -17 532 -2 24 -7 66 -9 93 -3 28 -8 61 -10 75 -3 14 -7 48
-10 75 -6 51 -10 74 -26 160 -5 28 -12 61 -14 75 -5 24 -9 45 -22 102 -3 15
-4 29 -3 30 1 2 -3 13 -9 25 -7 12 -14 35 -16 50 -2 15 -12 55 -22 88 -10 33
-19 65 -20 71 -4 24 -79 236 -116 329 -54 136 -81 193 -184 395 -32 63 -195
320 -241 380 -207 271 -404 476 -608 633 -5 4 -21 17 -35 28 -42 35 -272 186
-336 220 -303 163 -486 237 -754 305 -93 24 -125 30 -235 50 -107 19 -123 22
-195 29 -30 4 -73 9 -95 12 -43 6 -551 13 -557 8z m482 -1149 c14 -3 45 -9 70
-12 109 -14 271 -60 382 -108 21 -9 39 -15 40 -14 2 2 17 -7 35 -20 17 -12 35
-22 40 -22 12 0 183 -112 224 -146 110 -93 339 -342 339 -369 0 -3 8 -15 19
-26 10 -11 27 -37 37 -57 11 -20 22 -39 25 -42 14 -11 159 -308 159 -325 0 -2
5 -16 12 -32 6 -15 12 -30 13 -33 1 -3 18 -59 38 -125 21 -66 42 -136 47 -155
24 -89 20 -72 40 -180 7 -36 15 -72 17 -80 3 -8 7 -28 8 -45 2 -16 8 -64 14
-105 16 -107 25 -205 36 -375 11 -185 4 -657 -11 -785 -2 -19 -6 -60 -9 -90
-8 -100 -17 -168 -35 -270 -17 -96 -18 -105 -20 -105 -2 0 -4 -11 -14 -70 -2
-16 -13 -61 -24 -100 -11 -38 -19 -72 -20 -75 0 -15 -56 -187 -62 -195 -5 -5
-9 -14 -9 -20 -4 -36 -65 -181 -130 -305 -131 -253 -281 -432 -521 -623 -28
-22 -115 -75 -152 -93 -21 -10 -38 -21 -38 -26 0 -4 -5 -8 -11 -8 -5 0 -36
-12 -67 -26 -31 -15 -61 -27 -67 -29 -5 -1 -17 -4 -25 -7 -66 -24 -122 -41
-175 -53 -16 -4 -73 -15 -107 -20 -18 -3 -43 -8 -55 -10 -97 -21 -438 -24
-548 -4 -22 4 -62 10 -90 13 -27 3 -65 10 -83 15 -18 5 -36 10 -40 11 -58 8
-209 64 -307 112 -179 89 -367 240 -492 396 -21 26 -41 49 -44 52 -4 3 -37 50
-74 105 -84 127 -192 346 -244 499 -73 210 -128 442 -155 651 -4 28 -9 64 -12
80 -2 17 -7 57 -10 90 -3 33 -7 78 -9 100 -2 22 -7 114 -10 205 -4 91 -9 167
-11 169 -2 2 1 12 6 22 6 10 6 20 1 23 -7 5 -8 29 -1 61 1 6 1 15 0 20 -7 36
11 452 24 550 2 17 7 59 11 95 4 36 9 74 12 85 2 11 6 34 8 50 7 43 14 86 20
115 3 14 7 39 9 57 3 18 7 36 10 41 3 5 8 22 11 38 7 37 29 124 50 194 9 30
18 62 20 71 14 60 141 359 158 370 5 3 7 8 6 10 -8 9 98 180 166 269 107 141
220 252 355 348 36 26 67 50 68 54 2 5 12 8 23 8 10 0 19 3 19 8 0 6 75 44
195 98 32 15 182 60 228 69 15 3 38 7 52 10 63 13 84 16 140 21 33 4 62 8 64
10 6 5 405 -4 431 -10z"/>
<path d="M7184 10325 c-2 -5 -3 -203 -2 -440 l3 -429 35 -8 c19 -5 46 -10 60
-12 66 -11 96 -17 110 -21 8 -2 29 -7 45 -10 17 -2 41 -7 55 -10 14 -3 39 -8
55 -11 17 -3 62 -11 100 -19 39 -8 84 -16 100 -19 17 -3 46 -9 65 -14 20 -5
43 -8 53 -6 9 1 19 -2 23 -7 3 -5 18 -9 35 -9 23 0 29 -5 30 -22 1 -13 2
-1188 3 -2611 1 -1716 -2 -2591 -9 -2597 -5 -4 -30 -10 -55 -13 -48 -7 -82
-13 -108 -21 -9 -3 -35 -8 -57 -12 -22 -3 -71 -12 -110 -20 -38 -8 -81 -16
-95 -18 -14 -3 -41 -8 -60 -11 -19 -4 -45 -9 -57 -10 -11 -2 -29 -6 -40 -9
-10 -3 -34 -8 -53 -11 -52 -8 -93 -16 -113 -21 -16 -5 -17 -32 -15 -442 l3
-437 1890 1 c1040 1 1937 4 1995 8 58 4 128 9 155 10 28 2 69 7 93 11 24 3 58
8 75 10 58 6 132 16 147 20 15 4 70 14 105 20 59 9 239 54 340 86 22 7 42 13
45 13 7 2 63 23 165 64 187 76 392 195 545 319 97 78 280 270 280 293 0 5 4
10 8 10 8 0 72 93 113 165 33 58 109 214 109 224 0 4 7 22 16 39 8 17 17 44
20 58 3 15 9 35 15 46 5 10 7 18 4 18 -3 0 -1 8 4 18 5 9 11 31 14 49 3 17 8
36 11 41 6 10 16 62 21 107 2 17 6 41 9 55 36 154 43 620 11 760 -5 24 -7 37
-22 120 -3 19 -8 40 -12 45 -3 6 -7 19 -8 30 -12 77 -113 316 -184 435 -90
151 -278 347 -429 447 -30 20 -57 40 -60 43 -9 12 -211 110 -226 110 -8 0 -14
5 -14 11 0 5 -4 8 -9 5 -5 -4 -22 0 -38 8 -27 15 -58 27 -78 31 -5 2 -41 12
-79 24 -37 11 -77 21 -87 21 -24 0 -25 19 -1 27 9 3 46 19 82 36 36 17 68 30
73 29 4 -1 7 3 7 8 0 6 5 10 11 10 6 0 41 18 78 39 289 169 525 446 647 762
16 41 29 76 29 79 1 3 8 30 17 60 20 66 38 160 54 270 8 55 9 338 1 400 -4 25
-9 72 -12 105 -5 53 -14 104 -31 195 -6 33 -52 189 -63 215 -5 11 -17 38 -26
60 -29 68 -93 190 -120 231 -14 22 -31 48 -38 58 -69 107 -305 356 -337 356
-5 0 -10 4 -12 8 -1 4 -25 23 -53 42 -27 19 -52 37 -55 40 -12 12 -144 88
-225 130 -59 30 -159 74 -252 111 -13 5 -33 13 -45 18 -21 9 -96 34 -108 36
-3 1 -32 9 -64 19 -78 23 -281 73 -326 79 -19 3 -44 8 -55 10 -11 3 -40 8 -65
11 -25 3 -58 9 -75 12 -16 3 -47 7 -70 9 -22 2 -65 6 -95 10 -30 3 -82 8 -115
11 -33 3 -85 7 -115 10 -113 10 -3582 10 -3586 -1z m3511 -1127 c11 -3 47 -9
80 -12 33 -4 67 -9 75 -11 8 -2 29 -7 46 -10 121 -20 381 -124 434 -173 9 -9
32 -28 51 -42 47 -36 129 -123 129 -137 0 -7 4 -13 8 -13 5 0 24 -30 43 -67
19 -38 39 -71 44 -75 6 -4 7 -8 3 -8 -3 0 2 -24 12 -52 33 -96 52 -217 53
-342 1 -118 -12 -281 -23 -281 -1 0 -3 -8 -5 -17 -13 -66 -69 -191 -118 -263
-38 -56 -142 -155 -207 -199 -58 -38 -186 -104 -215 -111 -5 -1 -23 -7 -38
-13 -16 -7 -34 -12 -41 -12 -7 0 -16 -3 -20 -7 -4 -5 -11 -8 -14 -8 -7 -1 -53
-10 -102 -20 -14 -3 -43 -8 -64 -11 -22 -3 -43 -7 -47 -9 -19 -12 -287 -18
-799 -19 l-565 -1 -1 963 -1 964 631 -5 c347 -2 640 -6 651 -9z m365 -2932
c30 -3 64 -7 75 -9 11 -3 40 -8 65 -12 56 -9 180 -49 240 -77 119 -55 267
-177 309 -255 6 -12 17 -27 24 -35 36 -37 114 -232 136 -338 19 -92 20 -100
28 -174 13 -127 5 -409 -13 -437 -2 -4 -6 -24 -10 -45 -9 -58 -70 -210 -104
-261 -17 -24 -30 -46 -30 -49 0 -3 -10 -15 -22 -28 -13 -13 -43 -45 -68 -71
-57 -60 -168 -135 -265 -180 -41 -18 -75 -32 -75 -29 0 3 -6 2 -12 -3 -7 -4
-16 -8 -20 -9 -5 -1 -10 -3 -13 -4 -3 -1 -8 -3 -12 -4 -5 -2 -28 -8 -52 -15
-24 -7 -67 -16 -95 -21 -28 -5 -61 -11 -74 -14 -70 -15 -257 -19 -923 -20
l-736 -1 0 1045 c0 575 4 1047 8 1050 10 7 1568 4 1639 -4z"/>
</g>
</svg>
